<?xml version="1.0" encoding="utf-8"?>
<!-- Generator: Adobe Illustrator 21.0.2, SVG Export Plug-In . SVG Version: 6.00 Build 0)  -->
<svg version="1.1" id="Layer_1" xmlns="http://www.w3.org/2000/svg" xmlns:xlink="http://www.w3.org/1999/xlink" x="0px" y="0px"
	 width="375px" height="261px" viewBox="0 0 375 261" style="enable-background:new 0 0 375 261;" xml:space="preserve">
<style type="text/css">
	.st0{clip-path:url(#SVGID_2_);fill:#EAEAEA;}
	.st1{clip-path:url(#SVGID_4_);fill:#EAEAEA;}
	.st2{clip-path:url(#SVGID_6_);fill:#EAEAEA;}
</style>
<g>
	<g>
		<defs>
			<rect id="SVGID_1_" x="102.7" y="25.8" width="169.6" height="209.4"/>
		</defs>
		<clipPath id="SVGID_2_">
			<use xlink:href="#SVGID_1_"  style="overflow:visible;"/>
		</clipPath>
		<path class="st0" d="M167.6,123.7c-4.8,3.2-9.8,5.4-14.9,6.7c-5.1,1.3-10.4,1.3-15.8-0.3c-5.3-1.5-9.4-3.7-12.5-6.7
			c-3.1-2.9-5.3-6.3-6.7-10.2c4.9-0.9,9.6-2.2,14.1-4s8.6-4,12.3-6.7c3.7-2.6,6.8-5.7,9.5-9.2c2.7-3.5,4.6-7.5,5.9-12
			c1-3.5,1.3-6.8,0.8-9.9c-0.4-3.1-1.4-5.9-2.8-8.4s-3.2-4.6-5.4-6.3c-2.2-1.7-4.5-3-7.1-3.7c-4.3-1.2-8.5-1.3-12.6-0.4
			c-4.1,1-8,2.8-11.6,5.6c-3.6,2.8-6.7,6.3-9.4,10.7c-2.7,4.4-4.8,9.4-6.4,15c-1.6,5.6-2.4,11.4-2.3,17.5s1.2,11.8,3.3,17.2
			c2.1,5.4,5.5,10.3,9.9,14.6c4.5,4.3,10.3,7.5,17.6,9.5c11.4,3,22.7,1.5,34.1-4.4c3.2-1.7,6.5-3.8,9.9-6.2
			c-2.9-2.9-5.4-6.3-7.5-10.2C169.2,122.5,168.4,123.1,167.6,123.7 M115.8,101.2c0-2.1,0.1-4.3,0.4-6.7c0.2-2.3,0.6-4.4,1.2-6.4
			c0.9-3.2,2.1-6.3,3.6-9.4s3.3-5.7,5.4-8c2.1-2.3,4.4-3.9,6.9-5c2.6-1.1,5.3-1.2,8.3-0.3c2.2,0.6,3.9,2,5,4.2
			c1.2,2.2,1.3,4.9,0.4,8.2c-0.8,3-2.2,5.8-4.1,8.3c-1.9,2.6-4.2,4.9-7,7c-2.7,2.1-5.8,3.8-9.2,5.2
			C123.2,99.8,119.6,100.7,115.8,101.2"/>
	</g>
	<g>
		<defs>
			<rect id="SVGID_3_" x="102.7" y="25.8" width="169.6" height="209.4"/>
		</defs>
		<clipPath id="SVGID_4_">
			<use xlink:href="#SVGID_3_"  style="overflow:visible;"/>
		</clipPath>
		<path class="st1" d="M271.7,216.7l-39.3-78.8c18.2-11.9,25-35.9,15.1-55.8c-4.3-8.7-11.2-15.3-19.3-19.4c-1.2,3.2-2.5,6.5-3.9,9.6
			c5.8,3.1,10.8,8,14,14.4c8.2,16.4,1.5,36.4-14.9,44.5c-12.8,6.4-27.9,3.7-37.7-5.6c-2.7-2.6-5.1-5.7-6.8-9.3
			c-0.2-0.4-0.3-0.7-0.5-1.1c-7.5-16.1-0.8-35.4,15.3-43.4c5.8-2.9,12.1-3.9,18.1-3.3c1.5-3.3,2.9-6.6,4.1-9.9
			c-8.9-1.6-18.3-0.4-26.9,3.9c-21.4,10.7-30.2,36.9-19.5,58.4c0.2,0.3,0.4,0.7,0.5,1c2,3.8,4.5,7.2,7.4,10.2
			c11.7,11.8,29.6,16.2,45.7,10.4l25.6,51.4l-11.5,5.7c-2.6,1.3-3.6,4.4-2.3,7s4.4,3.6,7,2.3l11.5-5.7l6.7,13.5l-17.6,8.8
			c-2.6,1.3-3.6,4.4-2.3,6.9c1.3,2.6,4.4,3.6,6.9,2.3l22.2-11.1C271.9,222.3,273,219.2,271.7,216.7"/>
	</g>
	<g>
		<defs>
			<rect id="SVGID_5_" x="102.7" y="25.8" width="169.6" height="209.4"/>
		</defs>
		<clipPath id="SVGID_6_">
			<use xlink:href="#SVGID_5_"  style="overflow:visible;"/>
		</clipPath>
		<path class="st2" d="M228.1,25.8c-3.5,0-6.4,2.9-6.4,6.4c0,8-2.3,17.2-5.7,26.4c-1.2,3.3-2.6,6.6-4.1,9.9
			c-5.4,11.7-12.2,22.7-18.1,30.2c-0.1,0.1-0.3,0.3-0.4,0.4c-3.8,4.5-7.8,8.9-12.1,13.3c-1,1-2,1.9-3,2.9c0.2,0.4,0.3,0.7,0.5,1.1
			c1.8,3.6,4.1,6.7,6.8,9.3c5.4-4.8,11-10.4,16.6-17c0.3-0.3,0.6-0.7,0.9-1c0.1-0.1,0.2-0.3,0.4-0.4c0.1-0.1,0.1-0.1,0.2-0.2
			c6.5-8.3,14.4-20.9,20.6-34.6c1.4-3.2,2.7-6.4,3.9-9.6c3.8-10.3,6.3-20.8,6.3-30.4C234.5,28.7,231.6,25.8,228.1,25.8"/>
	</g>
</g>
</svg>
