<?xml version="1.0" encoding="utf-8"?>
<!-- Generator: Adobe Illustrator 21.0.2, SVG Export Plug-In . SVG Version: 6.00 Build 0)  -->
<svg version="1.1" id="Layer_1" xmlns="http://www.w3.org/2000/svg" xmlns:xlink="http://www.w3.org/1999/xlink" x="0px" y="0px"
	 width="401.6px" height="110.6px" viewBox="0 0 401.6 110.6" style="enable-background:new 0 0 401.6 110.6;" xml:space="preserve"
	>
<style type="text/css">
	.st0{clip-path:url(#SVGID_2_);}
	.st1{clip-path:url(#SVGID_2_);fill:#00F6BF;}
</style>
<g>
	<defs>
		<rect id="SVGID_1_" width="401.6" height="110.6"/>
	</defs>
	<clipPath id="SVGID_2_">
		<use xlink:href="#SVGID_1_"  style="overflow:visible;"/>
	</clipPath>
	<path class="st0" d="M82.3,71.7c0.6,1.4,1.7,2.6,3.1,3.4c1.5,0.8,3.1,1.3,4.9,1.3c0.6,0,1.5-0.1,2.7-0.3c1.3-0.2,2.7-0.7,4.4-1.7
		c1.7-1,3.4-2.5,5.3-4.5c1.9-2.1,3.7-5,5.4-8.7c0.2-0.4,0.4-0.7,0.8-0.9c0.3-0.2,0.7-0.3,1.1-0.3c0.6,0,1.2,0.2,1.5,0.7
		c0.4,0.4,0.6,0.9,0.6,1.5c0,0.2-0.1,0.5-0.2,0.9c-1.3,2.7-2.8,5.2-4.4,7.3c-1.6,2.2-3.3,4-5.2,5.5c-1.9,1.5-3.8,2.7-5.9,3.5
		c-2,0.8-4.1,1.2-6.3,1.2c-1.7,0-3.3-0.3-4.7-0.8c-1.5-0.5-2.7-1.2-3.8-2.1c-1.1-0.9-1.9-1.9-2.5-3c-0.6-1.1-0.9-2.2-0.9-3.4
		c0-0.1,0-0.4,0.1-0.6c0-0.3,0.1-0.6,0.3-0.9c0.2-0.3,0.4-0.6,0.7-0.9c0.3-0.3,0.8-0.5,1.3-0.7c1.5-0.4,2.9-1,4.2-1.7
		c1.3-0.7,2.4-1.4,3.3-2.2c0.9-0.8,1.7-1.7,2.2-2.7c0.5-1,0.8-2.1,0.8-3.2c0-1-0.3-1.8-1-2.5c-0.7-0.6-1.5-1-2.5-1c-1,0-2,0.3-3,1
		c-1,0.7-1.9,1.6-2.8,2.8c-0.9,1.1-1.8,2.4-2.6,3.9c-0.8,1.5-1.6,3-2.3,4.6c-0.7,1.6-1.3,3.2-1.8,4.8c-0.5,1.6-1,3.1-1.3,4.4
		c-0.1,0.4-0.2,0.9-0.4,1.3c-0.1,0.5-0.3,0.9-0.6,1.4c-0.3,0.4-0.6,0.8-1,1.1c-0.4,0.3-0.9,0.4-1.5,0.4c-0.6,0-1.1-0.2-1.6-0.7
		c-0.5-0.5-0.8-1.3-0.8-2.4c0-0.2,0-1.1,0-2.6c0-1.5,0-3.5,0.1-5.9c0-2.4,0.1-5.2,0.1-8.3c0.1-3.1,0.1-6.4,0.1-9.9
		c0-3.5,0.1-7.1,0.2-10.8c0.1-3.7,0.1-7.3,0.2-10.8c0-3.5,0.1-6.9,0.1-10c0.1-3.2,0.1-6,0.1-8.4c0-2.4,0.1-4.5,0.1-6
		c0-1.6,0-2.5,0-2.8c0-0.6,0.2-1.1,0.7-1.5C70.5,0.2,71,0,71.5,0c0.6,0,1.1,0.2,1.5,0.6c0.4,0.4,0.6,0.9,0.6,1.5c0,0.1,0,0.8,0,2.2
		c0,1.4,0,3.3-0.1,5.6c0,2.4-0.1,5.1-0.1,8.2s-0.1,6.5-0.2,10c-0.1,3.5-0.1,7.2-0.2,10.9c-0.1,3.7-0.1,7.4-0.2,10.9
		c-0.1,3.6-0.1,6.9-0.1,10.2c0,3.2-0.1,6.1-0.1,8.5c0.6-1.9,1.4-3.9,2.3-6c0.9-2.1,2-4.1,3.3-5.9c1.3-1.8,2.7-3.3,4.3-4.4
		c1.6-1.2,3.4-1.7,5.3-1.7c1.1,0,2.1,0.2,3,0.6c0.9,0.4,1.7,0.9,2.4,1.6c0.7,0.7,1.2,1.5,1.6,2.4c0.4,0.9,0.6,1.9,0.6,3
		c0,1.7-0.4,3.2-1.1,4.6c-0.7,1.4-1.7,2.7-3,3.8c-1.2,1.1-2.6,2.1-4.2,2.9C85.6,70.5,83.9,71.2,82.3,71.7"/>
	<path class="st0" d="M134.1,72.4c-0.9,0-1.8-0.1-2.5-0.2c-0.6,1.1-1.2,2.2-2,3.1c-0.8,1-1.7,1.8-2.7,2.5c-1,0.7-2.2,1.3-3.4,1.7
		c-1.3,0.4-2.7,0.6-4.2,0.6c-1.8,0-3.4-0.3-4.8-0.9c-1.5-0.6-2.7-1.5-3.8-2.6c-1.1-1.1-1.9-2.4-2.5-4s-0.9-3.3-0.9-5.1
		c0-2.4,0.4-4.5,1.3-6.3c0.9-1.8,1.9-3.3,3-4.4c1.1-1.2,2.2-2.1,3.4-2.6c1.1-0.6,2-0.9,2.5-0.9c0.6,0,1.1,0.2,1.4,0.5
		c0.3,0.3,0.5,0.8,0.5,1.3c0,0.6-0.2,1.1-0.6,1.4c-0.4,0.3-0.9,0.6-1.5,0.9c-0.6,0.3-1.2,0.7-1.9,1.3c-0.7,0.5-1.3,1.2-1.9,2
		c-0.6,0.8-1.1,1.8-1.4,2.9c-0.4,1.1-0.6,2.4-0.6,3.8c0,1.2,0.2,2.4,0.6,3.4c0.4,1.1,0.9,2,1.6,2.8c0.7,0.8,1.6,1.4,2.5,1.8
		c1,0.4,2.1,0.6,3.3,0.6c2.1,0,3.9-0.5,5.3-1.5c1.4-1,2.5-2.3,3.2-3.8c-2.2-1.2-4-2.8-5.4-4.9c-1.4-2.1-2.1-4.5-2.1-7.2
		c0-2.1,0.5-3.9,1.5-5.2c1-1.3,2.4-2,4.1-2c1,0,2,0.2,2.9,0.7c0.9,0.5,1.7,1.3,2.4,2.3c0.7,1,1.2,2.4,1.7,4c0.4,1.6,0.6,3.6,0.6,5.9
		c0,1.2-0.2,2.5-0.4,3.8c0.2,0,0.4,0.1,0.7,0.1h0.7c1.3,0,2.4-0.1,3.4-0.4c1-0.3,1.9-0.7,2.7-1.3c0.8-0.6,1.6-1.4,2.2-2.3
		c0.7-0.9,1.3-2,1.9-3.3c0.1-0.2,0.4-0.4,0.7-0.6c0.4-0.2,0.7-0.3,1.1-0.3c0.5,0,0.9,0.2,1.4,0.6c0.4,0.4,0.6,0.9,0.6,1.5
		c0,0.3-0.1,0.6-0.2,1c-0.2,0.4-0.3,0.7-0.5,1c-0.6,1.1-1.4,2.2-2.2,3.2c-0.8,1-1.8,1.9-3,2.7c-1.1,0.8-2.4,1.4-3.8,1.8
		C137.4,72.3,135.9,72.5,134.1,72.4 M124.5,58.3c0,0.7,0.1,1.5,0.3,2.2c0.2,0.8,0.5,1.6,0.9,2.3c0.4,0.8,0.9,1.5,1.5,2.2
		c0.6,0.7,1.3,1.3,2,1.8c0.1-0.8,0.2-1.6,0.2-2.3c0-1-0.1-2-0.2-3.1c-0.2-1-0.4-2-0.6-2.9c-0.3-0.9-0.6-1.6-1-2.1
		c-0.4-0.5-0.9-0.8-1.5-0.8c-0.2,0-0.5,0.2-0.9,0.5C124.7,56.4,124.5,57.2,124.5,58.3"/>
	<path class="st0" d="M157,73.6c0.6-1.2,1.3-2.6,2.1-4.1c0.8-1.5,1.6-3,2.5-4.5c0.9-1.5,1.8-3,2.8-4.5c1-1.5,2-2.9,3.1-4.3
		c1.1-1.3,2.2-2.3,3.3-2.8c1.1-0.6,2.1-0.9,3.1-0.9c1.9,0,3.4,0.7,4.3,2.1c0.9,1.4,1.4,3.2,1.4,5.3c0,0.5,0,1.1-0.1,1.8
		c-0.1,0.7-0.1,1.4-0.2,2.2c-0.1,0.8-0.1,1.6-0.2,2.4c-0.1,0.8-0.1,1.6-0.1,2.3c0,0.9,0,1.8,0.1,2.6c0.1,0.8,0.3,1.5,0.5,2.2
		c0.3,0.6,0.6,1.1,1.1,1.5c0.5,0.4,1.1,0.5,1.9,0.5c1.4,0,2.8-0.6,4.2-1.7c1.3-1.1,2.6-2.4,3.7-3.9c1.1-1.5,2.1-3.1,3-4.6
		c0.8-1.6,1.5-2.8,1.9-3.8c0.2-0.4,0.5-0.7,0.8-1c0.4-0.2,0.7-0.3,1.2-0.3c0.6,0,1.2,0.2,1.5,0.7c0.4,0.5,0.6,1,0.6,1.5
		c0,0.3-0.1,0.5-0.2,0.8c-0.1,0.3-0.4,0.9-0.9,1.9c-0.4,0.9-1,2-1.8,3.2c-0.7,1.2-1.6,2.5-2.6,3.9c-1,1.4-2,2.6-3.2,3.7
		c-1.2,1.1-2.5,2.1-3.8,2.8c-1.4,0.7-2.8,1.1-4.3,1.1c-1.7,0-3-0.3-4.1-1c-1-0.7-1.9-1.5-2.5-2.6c-0.6-1.1-1-2.2-1.2-3.5
		c-0.2-1.3-0.3-2.6-0.3-3.9c0-0.6,0-1.2,0.1-1.9c0.1-0.7,0.1-1.5,0.2-2.2c0.1-0.8,0.2-1.6,0.2-2.4c0.1-0.8,0.1-1.5,0.1-2.2
		c0-1.2-0.2-2-0.6-2.4s-0.7-0.6-1-0.6c-0.6,0-1.3,0.3-2,1c-0.8,0.7-1.6,1.6-2.4,2.7c-0.8,1.1-1.7,2.4-2.6,3.8
		c-0.9,1.4-1.7,2.8-2.5,4.2c-0.8,1.4-1.5,2.7-2.1,4c-0.7,1.3-1.2,2.3-1.5,3.1c-0.7,1.6-1.5,2.6-2.2,3.2s-1.5,0.8-2.3,0.8
		c-1.1,0-2-0.3-2.6-1c-0.7-0.7-1-1.6-1-2.8c0-0.3,0-0.8,0.1-1.5c0.1-0.8,0.2-1.7,0.3-2.8c0.1-1.1,0.2-2.2,0.3-3.5
		c0.1-1.2,0.2-2.5,0.3-3.7c0.1-1.2,0.2-2.3,0.3-3.4c0.1-1,0.1-1.9,0.1-2.6c0-0.9,0-1.8-0.1-2.7c-0.1-0.9-0.2-1.4-0.4-1.6
		c-0.3,0.1-0.9,0.8-1.8,2.1c-0.9,1.3-2,3.6-3.3,6.8c-0.2,0.4-0.5,0.7-0.8,1c-0.4,0.2-0.8,0.3-1.2,0.3c-0.6,0-1.1-0.2-1.5-0.6
		c-0.4-0.4-0.6-0.9-0.6-1.5c0-0.3,0.1-0.5,0.2-0.8c1.7-4,3.3-6.9,4.7-8.8c1.5-1.9,2.9-2.8,4.4-2.8c0.9,0,1.6,0.2,2.2,0.6
		c0.6,0.4,1.1,1,1.4,1.7c0.4,0.7,0.6,1.5,0.8,2.4c0.2,0.9,0.3,1.7,0.3,2.6c0,0.7,0,1.7-0.1,3.1c-0.1,1.4-0.2,2.9-0.4,4.6
		c-0.1,1.6-0.3,3.2-0.4,4.9C157.2,71.1,157.1,72.5,157,73.6"/>
	<path class="st0" d="M241.1,22.4c0,0.6-0.2,1.1-0.6,1.4c-0.4,0.4-0.9,0.5-1.5,0.5h-28.4V25c0,2.3-0.2,4.7-0.5,7.3
		c-0.3,2.6-0.8,5.2-1.4,7.7c-0.6,2.6-1.2,5.1-2,7.5c-0.7,2.4-1.5,4.7-2.2,6.7c-0.8,2.1-1.5,3.8-2.3,5.4c-0.7,1.5-1.4,2.6-2,3.4
		c0.5,1.7,1.1,3.3,1.7,4.8c0.7,1.5,1.4,2.8,2.3,3.9c0.8,1.1,1.7,2,2.7,2.6c1,0.6,2,1,3.1,1c1.3,0,2.6-0.6,3.9-1.7
		c1.3-1.1,2.5-2.4,3.6-3.9c1.1-1.5,2.1-3,2.9-4.6c0.8-1.6,1.5-2.8,1.8-3.7c0.4-0.9,1-1.3,2-1.3c0.6,0,1.1,0.2,1.5,0.7
		c0.4,0.4,0.6,0.9,0.6,1.5c0,0.3-0.1,0.5-0.2,0.8c-0.1,0.3-0.4,0.9-0.8,1.8c-0.4,0.9-1,2-1.7,3.3c-0.7,1.2-1.5,2.5-2.4,3.9
		c-0.9,1.4-1.9,2.6-3.1,3.7c-1.1,1.1-2.4,2.1-3.7,2.8c-1.3,0.7-2.7,1.1-4.2,1.1c-2.6,0-4.9-0.8-7-2.5c-2.1-1.7-3.8-4-5.2-7.1
		c-1.4-3-2.5-6.6-3.3-10.8c-0.7-4.2-1.1-8.7-1.1-13.6c0-1.2,0-2.7,0.1-4.3c0-1.7,0.1-3.4,0.2-5.3c0.1-1.9,0.3-3.8,0.5-5.7
		c0.2-2,0.5-3.9,0.9-5.8h-20.1c-0.6,0-1.1-0.2-1.5-0.5c-0.4-0.4-0.6-0.8-0.6-1.4c0-0.6,0.2-1.1,0.6-1.4c0.4-0.4,0.9-0.5,1.5-0.5
		h21.1c0.4-1.3,0.8-2.6,1.3-3.7c0.5-1.1,1.1-2.1,1.7-2.9c0.7-0.8,1.4-1.5,2.2-1.9c0.8-0.5,1.7-0.7,2.7-0.7c0.9,0,1.7,0.2,2.4,0.7
		c0.7,0.5,1.3,1.1,1.8,1.9c0.5,0.8,0.9,1.8,1.1,2.9c0.3,1.1,0.5,2.4,0.6,3.7H239c0.6,0,1.1,0.2,1.5,0.5
		C240.9,21.4,241.1,21.8,241.1,22.4 M198.8,57.4c1.1-2.5,2.1-5.1,3.1-8c0.9-2.9,1.7-5.8,2.4-8.7c0.7-2.9,1.2-5.8,1.5-8.6
		c0.4-2.8,0.5-5.4,0.5-7.7h-6.6c-0.5,2.3-0.9,5.2-1.3,8.6s-0.5,7.6-0.5,12.5c0,2.7,0.1,5,0.2,6.9C198.3,54.2,198.5,55.9,198.8,57.4
		 M204.1,15.4c-0.3,0-0.8,0.4-1.5,1.1c-0.6,0.7-1.3,2-1.9,4h5.4c-0.2-1.6-0.5-2.8-0.8-3.7C204.9,15.9,204.5,15.4,204.1,15.4"/>
	<path class="st0" d="M265.8,63c-0.1,0.3-0.5,0.9-0.9,1.9c-0.5,1-1.1,2-1.8,3.3c-0.7,1.2-1.6,2.5-2.6,3.9c-1,1.3-2.1,2.6-3.3,3.7
		c-1.2,1.1-2.5,2-3.9,2.8c-1.4,0.7-2.8,1.1-4.4,1.1c-2.2,0-4-0.7-5.5-2.1c-1.5-1.4-2.6-3.1-3.2-5.2c-1.3,2.1-2.8,3.8-4.5,5.1
		s-3.5,1.9-5.3,1.9c-1.4,0-2.6-0.3-3.8-0.8c-1.1-0.5-2.1-1.2-2.9-2.1c-0.8-0.9-1.4-2-1.8-3.2c-0.4-1.2-0.6-2.6-0.6-4
		c0-2.9,0.5-5.5,1.5-7.7c1-2.2,2.3-4.1,3.8-5.6c1.5-1.5,3.2-2.6,5.1-3.4c1.9-0.7,3.6-1.1,5.4-1.1c1.2,0,2.2,0.2,3.2,0.5
		c1,0.3,1.8,0.7,2.5,1c0.7,0.4,1.2,0.7,1.6,1c0.4,0.3,0.6,0.5,0.6,0.5c0.4,0.5,0.6,1,0.6,1.5c0,0.6-0.2,1.1-0.6,1.5
		c-0.4,0.4-0.9,0.6-1.5,0.6c-0.6,0-1.1-0.2-1.5-0.6c-0.1-0.1-0.2-0.2-0.5-0.4c-0.3-0.2-0.6-0.4-1.1-0.6c-0.4-0.2-1-0.4-1.6-0.6
		c-0.6-0.2-1.3-0.3-2.1-0.3c-1.2,0-2.4,0.3-3.7,0.8c-1.3,0.5-2.5,1.3-3.6,2.4c-1.1,1.1-2,2.5-2.7,4.2c-0.7,1.7-1.1,3.6-1.1,5.9
		c0,0.7,0.1,1.4,0.2,2.2c0.1,0.7,0.4,1.4,0.8,2c0.4,0.6,0.9,1.1,1.5,1.5c0.6,0.4,1.4,0.6,2.4,0.6c0.7,0,1.4-0.2,2.3-0.7
		c0.9-0.4,1.7-1.1,2.5-2.1c0.8-0.9,1.5-2.1,2.2-3.5c0.7-1.4,1.1-3.1,1.4-5.1c0.1-0.5,0.3-1,0.7-1.3c0.4-0.4,0.9-0.5,1.5-0.5
		c0.5,0,1,0.2,1.4,0.6c0.4,0.4,0.6,0.9,0.6,1.4c0,0.7,0.1,1.7,0.2,3c0.1,1.3,0.4,2.6,0.8,3.8c0.4,1.3,1,2.4,1.8,3.3
		c0.8,0.9,1.9,1.4,3.3,1.4c0.9,0,1.8-0.2,2.7-0.7c0.9-0.5,1.7-1.1,2.6-1.9c0.8-0.8,1.6-1.7,2.4-2.7c0.8-1,1.5-2.1,2.1-3.1
		c0.6-1,1.2-2.1,1.7-3c0.5-1,0.9-1.8,1.2-2.5c0.2-0.4,0.5-0.7,0.8-1c0.4-0.2,0.7-0.3,1.1-0.3c0.6,0,1.2,0.2,1.5,0.7
		c0.4,0.5,0.6,1,0.6,1.5C266,62.4,266,62.7,265.8,63"/>
	<path class="st0" d="M276.1,71.7c0.6,1.4,1.7,2.6,3.1,3.4c1.5,0.8,3.1,1.3,4.9,1.3c0.6,0,1.5-0.1,2.7-0.3s2.7-0.7,4.4-1.7
		c1.7-1,3.4-2.5,5.3-4.5c1.9-2.1,3.7-5,5.4-8.7c0.2-0.4,0.4-0.7,0.8-0.9c0.3-0.2,0.7-0.3,1.1-0.3c0.6,0,1.1,0.2,1.5,0.7
		c0.4,0.4,0.6,0.9,0.6,1.5c0,0.2-0.1,0.5-0.2,0.9c-1.3,2.7-2.8,5.2-4.4,7.3c-1.6,2.2-3.3,4-5.2,5.5c-1.9,1.5-3.8,2.7-5.9,3.5
		c-2,0.8-4.1,1.2-6.3,1.2c-1.7,0-3.3-0.3-4.7-0.8c-1.5-0.5-2.8-1.2-3.8-2.1c-1.1-0.9-1.9-1.9-2.5-3c-0.6-1.1-0.9-2.2-0.9-3.4
		c0-0.1,0-0.4,0.1-0.6c0-0.3,0.1-0.6,0.3-0.9c0.2-0.3,0.4-0.6,0.7-0.9c0.3-0.3,0.8-0.5,1.3-0.7c1.5-0.4,2.9-1,4.2-1.7
		c1.3-0.7,2.4-1.4,3.3-2.2c0.9-0.8,1.7-1.7,2.2-2.7c0.5-1,0.8-2.1,0.8-3.2c0-1-0.3-1.8-1-2.5c-0.7-0.6-1.5-1-2.5-1c-1,0-2,0.3-3,1
		c-1,0.7-1.9,1.6-2.8,2.8c-0.9,1.1-1.8,2.4-2.6,3.9c-0.8,1.5-1.6,3-2.3,4.6c-0.7,1.6-1.3,3.2-1.8,4.8c-0.5,1.6-1,3.1-1.3,4.4
		c-0.1,0.4-0.2,0.9-0.4,1.3c-0.1,0.5-0.3,0.9-0.6,1.4c-0.3,0.4-0.6,0.8-1,1.1c-0.4,0.3-0.9,0.4-1.5,0.4c-0.6,0-1.1-0.2-1.6-0.7
		c-0.5-0.5-0.8-1.3-0.8-2.4c0-0.2,0-1.1,0-2.6c0-1.5,0-3.5,0.1-5.9c0-2.4,0.1-5.2,0.1-8.3s0.1-6.4,0.1-9.9c0-3.5,0.1-7.1,0.2-10.8
		c0.1-3.7,0.1-7.3,0.2-10.8c0-3.5,0.1-6.9,0.1-10c0.1-3.2,0.1-6,0.1-8.4c0-2.4,0.1-4.5,0.1-6c0-1.6,0-2.5,0-2.8
		c0-0.6,0.2-1.1,0.7-1.5c0.4-0.4,0.9-0.6,1.5-0.6c0.6,0,1.1,0.2,1.5,0.6c0.4,0.4,0.6,0.9,0.6,1.5c0,0.1,0,0.8,0,2.2
		c0,1.4,0,3.3-0.1,5.6c0,2.4-0.1,5.1-0.1,8.2s-0.1,6.5-0.2,10c-0.1,3.5-0.1,7.2-0.2,10.9c-0.1,3.7-0.1,7.4-0.2,10.9
		c-0.1,3.6-0.1,6.9-0.1,10.2c0,3.2-0.1,6.1-0.1,8.5c0.6-1.9,1.4-3.9,2.3-6c0.9-2.1,2-4.1,3.3-5.9c1.3-1.8,2.7-3.3,4.3-4.4
		c1.6-1.2,3.4-1.7,5.3-1.7c1.1,0,2.1,0.2,3,0.6c0.9,0.4,1.7,0.9,2.4,1.6c0.7,0.7,1.2,1.5,1.6,2.4c0.4,0.9,0.6,1.9,0.6,3
		c0,1.7-0.4,3.2-1.1,4.6c-0.7,1.4-1.7,2.7-3,3.8c-1.2,1.1-2.6,2.1-4.2,2.9C279.4,70.5,277.8,71.2,276.1,71.7"/>
	<path class="st0" d="M347.5,22.4c0,0.6-0.2,1.1-0.6,1.4c-0.4,0.4-0.9,0.5-1.5,0.5H317V25c0,2.3-0.2,4.7-0.5,7.3
		c-0.3,2.6-0.8,5.2-1.4,7.7c-0.6,2.6-1.2,5.1-2,7.5c-0.7,2.4-1.5,4.7-2.2,6.7c-0.8,2.1-1.5,3.8-2.3,5.4c-0.7,1.5-1.4,2.6-2,3.4
		c0.5,1.7,1.1,3.3,1.7,4.8c0.7,1.5,1.4,2.8,2.3,3.9c0.8,1.1,1.7,2,2.7,2.6c1,0.6,2,1,3.1,1c1.3,0,2.6-0.6,3.9-1.7
		c1.3-1.1,2.5-2.4,3.6-3.9c1.1-1.5,2.1-3,2.9-4.6c0.8-1.6,1.5-2.8,1.8-3.7c0.4-0.9,1-1.3,2-1.3c0.6,0,1.1,0.2,1.5,0.7
		c0.4,0.4,0.6,0.9,0.6,1.5c0,0.3-0.1,0.5-0.2,0.8c-0.1,0.3-0.4,0.9-0.8,1.8c-0.4,0.9-1,2-1.7,3.3c-0.7,1.2-1.5,2.5-2.4,3.9
		c-0.9,1.4-1.9,2.6-3.1,3.7c-1.1,1.1-2.4,2.1-3.7,2.8c-1.3,0.7-2.7,1.1-4.2,1.1c-2.6,0-4.9-0.8-7-2.5c-2.1-1.7-3.8-4-5.2-7.1
		c-1.4-3-2.5-6.6-3.3-10.8c-0.7-4.2-1.1-8.7-1.1-13.6c0-1.2,0-2.7,0.1-4.3c0-1.7,0.1-3.4,0.2-5.3c0.1-1.9,0.3-3.8,0.5-5.7
		c0.2-2,0.5-3.9,0.9-5.8h-20.1c-0.6,0-1.1-0.2-1.5-0.5c-0.4-0.4-0.6-0.8-0.6-1.4c0-0.6,0.2-1.1,0.6-1.4c0.4-0.4,0.9-0.5,1.5-0.5
		h21.1c0.4-1.3,0.8-2.6,1.3-3.7c0.5-1.1,1.1-2.1,1.7-2.9c0.7-0.8,1.4-1.5,2.2-1.9c0.8-0.5,1.7-0.7,2.7-0.7c0.9,0,1.7,0.2,2.4,0.7
		c0.7,0.5,1.3,1.1,1.8,1.9c0.5,0.8,0.9,1.8,1.1,2.9c0.3,1.1,0.5,2.4,0.6,3.7h28.7c0.6,0,1.1,0.2,1.5,0.5
		C347.3,21.4,347.5,21.8,347.5,22.4 M305.3,57.4c1.1-2.5,2.1-5.1,3.1-8c0.9-2.9,1.7-5.8,2.4-8.7c0.7-2.9,1.2-5.8,1.5-8.6
		c0.4-2.8,0.5-5.4,0.5-7.7h-6.6c-0.5,2.3-0.9,5.2-1.3,8.6s-0.5,7.6-0.5,12.5c0,2.7,0.1,5,0.2,6.9C304.8,54.2,305,55.9,305.3,57.4
		 M310.5,15.4c-0.3,0-0.8,0.4-1.5,1.1c-0.6,0.7-1.3,2-1.9,4h5.4c-0.2-1.6-0.5-2.8-0.8-3.7C311.4,15.9,311,15.4,310.5,15.4"/>
	<path class="st0" d="M372.3,63c-0.1,0.3-0.5,0.9-0.9,1.9c-0.5,1-1.1,2-1.8,3.3c-0.7,1.2-1.6,2.5-2.6,3.9c-1,1.3-2.1,2.6-3.3,3.7
		c-1.2,1.1-2.5,2-3.9,2.8c-1.4,0.7-2.8,1.1-4.4,1.1c-2.2,0-4-0.7-5.5-2.1c-1.5-1.4-2.6-3.1-3.2-5.2c-1.3,2.1-2.8,3.8-4.5,5.1
		c-1.8,1.3-3.5,1.9-5.3,1.9c-1.4,0-2.6-0.3-3.8-0.8c-1.1-0.5-2.1-1.2-2.9-2.1c-0.8-0.9-1.4-2-1.8-3.2c-0.4-1.2-0.6-2.6-0.6-4
		c0-2.9,0.5-5.5,1.5-7.7c1-2.2,2.3-4.1,3.8-5.6c1.5-1.5,3.2-2.6,5.1-3.4c1.9-0.7,3.6-1.1,5.4-1.1c1.2,0,2.2,0.2,3.2,0.5
		c1,0.3,1.8,0.7,2.5,1c0.7,0.4,1.2,0.7,1.6,1c0.4,0.3,0.6,0.5,0.6,0.5c0.4,0.5,0.6,1,0.6,1.5c0,0.6-0.2,1.1-0.6,1.5
		c-0.4,0.4-0.9,0.6-1.5,0.6c-0.6,0-1.1-0.2-1.5-0.6c-0.1-0.1-0.2-0.2-0.5-0.4c-0.3-0.2-0.6-0.4-1.1-0.6c-0.4-0.2-1-0.4-1.6-0.6
		c-0.6-0.2-1.3-0.3-2.1-0.3c-1.2,0-2.4,0.3-3.7,0.8c-1.3,0.5-2.5,1.3-3.6,2.4c-1.1,1.1-2,2.5-2.7,4.2c-0.7,1.7-1.1,3.6-1.1,5.9
		c0,0.7,0.1,1.4,0.2,2.2c0.1,0.7,0.4,1.4,0.8,2c0.4,0.6,0.9,1.1,1.5,1.5c0.6,0.4,1.4,0.6,2.4,0.6c0.7,0,1.4-0.2,2.3-0.7
		c0.9-0.4,1.7-1.1,2.5-2.1c0.8-0.9,1.5-2.1,2.2-3.5c0.7-1.4,1.1-3.1,1.4-5.1c0.1-0.5,0.3-1,0.7-1.3c0.4-0.4,0.9-0.5,1.5-0.5
		c0.5,0,1,0.2,1.4,0.6c0.4,0.4,0.6,0.9,0.6,1.4c0,0.7,0.1,1.7,0.2,3c0.1,1.3,0.4,2.6,0.8,3.8c0.4,1.3,1,2.4,1.8,3.3
		c0.8,0.9,1.9,1.4,3.3,1.4c0.9,0,1.8-0.2,2.7-0.7c0.9-0.5,1.7-1.1,2.6-1.9c0.8-0.8,1.6-1.7,2.4-2.7c0.8-1,1.5-2.1,2.1-3.1
		c0.6-1,1.2-2.1,1.7-3c0.5-1,0.9-1.8,1.2-2.5c0.2-0.4,0.5-0.7,0.8-1c0.4-0.2,0.7-0.3,1.1-0.3c0.6,0,1.2,0.2,1.5,0.7
		c0.4,0.5,0.6,1,0.6,1.5C372.5,62.4,372.4,62.7,372.3,63"/>
	<path class="st0" d="M374.6,57.9c-0.2,0.6-0.5,1.3-0.8,2c-0.3,0.7-0.7,1.5-1.1,2.4c-0.3,0.6-0.7,1.1-1,1.5
		c-0.4,0.4-0.8,0.5-1.4,0.5c-0.6,0-1.1-0.2-1.5-0.6c-0.4-0.4-0.6-0.9-0.6-1.4c0-0.2,0-0.3,0.1-0.5c0-0.1,0.1-0.3,0.3-0.6
		c1-1.9,1.7-3.5,2.2-4.9c0.5-1.4,0.9-2.9,1.1-4.4c-0.3-0.9-0.4-1.6-0.6-2.2c-0.1-0.6-0.2-1.2-0.2-1.9c0-1.2,0.3-2.2,0.8-3
		c0.5-0.8,1.3-1.2,2.2-1.2c0.9,0,1.5,0.4,2,1.1c0.5,0.7,0.8,1.7,0.8,2.7c0,0.6-0.1,1.2-0.2,1.8c-0.1,0.6-0.3,1.3-0.4,2.2
		c0.9,2.1,1.7,4,2.6,5.7c0.9,1.6,1.6,3.2,2.3,4.5c0.7,1.4,1.2,2.6,1.7,3.8c0.4,1.2,0.6,2.4,0.6,3.6c0,1.6-0.3,3.1-1,4.5
		c-0.6,1.4-1.7,2.6-3.1,3.6c0.2,0,0.4,0.1,0.6,0.1h0.6c2.1,0,4.1-0.5,5.9-1.5c1.8-1,3.4-2.2,4.9-3.8c1.4-1.6,2.7-3.3,3.8-5.2
		c1.1-1.9,2.1-3.8,2.9-5.6c0.4-0.9,0.9-1.3,1.6-1.3c0.6,0,1.1,0.2,1.5,0.7c0.4,0.4,0.5,0.9,0.5,1.5c0,0.3-0.1,0.6-0.2,0.8
		c-0.4,1-0.9,2.2-1.6,3.5c-0.7,1.3-1.4,2.6-2.4,4c-0.9,1.4-2,2.7-3.2,4c-1.2,1.3-2.5,2.5-4,3.5c-1.5,1-3.1,1.9-4.9,2.5
		c-1.8,0.6-3.7,0.9-5.8,0.9c-2.5,0-4.8-0.4-7-1.3c-2.2-0.9-3.9-2.3-5.2-4.3c-0.2-0.3-0.3-0.7-0.3-1.1c0-0.6,0.2-1.1,0.6-1.5
		c0.4-0.4,0.9-0.6,1.5-0.6c0.6,0,1.1,0.2,1.5,0.6c0,0.1,0.2,0.2,0.4,0.4c0.2,0.2,0.5,0.4,0.8,0.6c0.3,0.2,0.7,0.4,1.1,0.5
		c0.4,0.2,0.9,0.2,1.3,0.2c0.9,0,1.7-0.2,2.3-0.6c0.6-0.4,1.1-0.8,1.5-1.4c0.4-0.5,0.6-1.1,0.8-1.7c0.2-0.6,0.3-1.2,0.3-1.6
		c0-0.9-0.2-1.9-0.4-2.8c-0.3-0.9-0.7-1.9-1.2-2.8c-0.5-0.9-1-1.9-1.5-2.9C375.6,60,375.1,58.9,374.6,57.9"/>
	<path class="st0" d="M22.6,72.8c-0.4,0.3-0.8,0.6-1.3,0.9c-1.6,1-3.2,1.8-4.9,2.2c-1.7,0.4-3.4,0.4-5.2-0.1
		c-1.7-0.5-3.1-1.2-4.1-2.2c-1-1-1.8-2.1-2.2-3.3C6.5,70,8.1,69.6,9.6,69s2.8-1.3,4-2.2c1.2-0.9,2.2-1.9,3.1-3
		c0.9-1.2,1.5-2.5,1.9-4c0.3-1.2,0.4-2.2,0.3-3.3c-0.1-1-0.4-1.9-0.9-2.7c-0.5-0.8-1.1-1.5-1.8-2.1c-0.7-0.6-1.5-1-2.3-1.2
		c-1.4-0.4-2.8-0.4-4.2-0.1c-1.4,0.3-2.6,0.9-3.8,1.9c-1.2,0.9-2.2,2.1-3.1,3.5c-0.9,1.4-1.6,3.1-2.1,4.9S0,64.4,0,66.4
		c0,2,0.4,3.9,1.1,5.7c0.7,1.8,1.8,3.4,3.3,4.8c1.5,1.4,3.4,2.5,5.8,3.1c3.7,1,7.5,0.5,11.2-1.5c1.2-0.6,2.4-1.4,3.6-2.3
		c-0.9-1-1.6-2.1-2.2-3.3C22.7,72.9,22.6,72.9,22.6,72.8 M4.3,66.3c0-0.7,0-1.4,0.1-2.2c0.1-0.8,0.2-1.5,0.4-2.1C5.1,61,5.5,60,6,59
		c0.5-1,1.1-1.9,1.8-2.6c0.7-0.7,1.4-1.3,2.3-1.6c0.8-0.3,1.7-0.4,2.7-0.1c0.7,0.2,1.3,0.7,1.7,1.4c0.4,0.7,0.4,1.6,0.1,2.7
		c-0.3,1-0.7,1.9-1.4,2.7c-0.6,0.9-1.4,1.6-2.3,2.3C10,64.4,9,65,7.9,65.4C6.7,65.9,5.5,66.2,4.3,66.3"/>
	<path class="st1" d="M56.3,104.5L43.4,78.6c6-3.9,8.2-11.8,5-18.4c-1.5-3.1-4.1-5.4-7-6.7c-0.4,1.1-0.8,2.1-1.3,3.2
		c2.2,1,4.1,2.7,5.2,5.1c2.7,5.4,0.5,12-4.9,14.7c-4.4,2.2-9.6,1.1-12.8-2.3c-0.7-0.8-1.3-1.6-1.8-2.6c-0.2-0.3-0.3-0.6-0.4-0.9
		c-2-5.2,0.2-11.2,5.3-13.7c1.7-0.8,3.5-1.2,5.2-1.1c0.5-1.1,1-2.2,1.4-3.3c-2.7-0.3-5.5,0.1-8.1,1.4c-7,3.5-9.9,12-6.5,19.1
		c0,0.1,0,0.1,0.1,0.2c0.6,1.2,1.4,2.3,2.2,3.3c3.8,4.2,9.9,5.8,15.4,3.8L48.8,97L45,98.9c-0.8,0.4-1.2,1.4-0.8,2.3
		c0.4,0.8,1.4,1.2,2.3,0.8l3.8-1.9l2.2,4.4l-5.8,2.9c-0.8,0.4-1.2,1.4-0.8,2.3c0.4,0.8,1.4,1.2,2.3,0.8l7.3-3.6
		C56.4,106.4,56.7,105.3,56.3,104.5"/>
	<path class="st0" d="M41.3,41.5c-1.2,0-2.1,0.9-2.1,2.1c0,2.6-0.8,5.7-1.9,8.7c-0.4,1.1-0.9,2.2-1.4,3.3c-1.8,3.9-4,7.5-6,9.9
		c0,0,0,0-0.1,0.1c-1.2,1.5-2.6,2.9-4,4.4c-0.2,0.2-0.3,0.3-0.5,0.5c0.1,0.3,0.3,0.6,0.4,0.9c0.5,1,1.1,1.9,1.8,2.6
		c1.7-1.5,3.5-3.3,5.2-5.4c0,0,0.1-0.1,0.1-0.1c2.2-2.8,5-7.1,7.1-11.9c0.5-1,0.9-2.1,1.3-3.2c1.2-3.3,2-6.7,2-9.9
		C43.4,42.5,42.4,41.5,41.3,41.5"/>
</g>
</svg>
